<?xml version="1.0" encoding="UTF-8"?>
<svg version="1.1" xmlns="http://www.w3.org/2000/svg" width="256" height="256">
<path d="M0 0 C84.48 0 168.96 0 256 0 C256 84.48 256 168.96 256 256 C171.52 256 87.04 256 0 256 C0 171.52 0 87.04 0 0 Z " fill="#23144A" transform="translate(0,0)"/>
<path d="M0 0 C16.24372385 -0.45972803 16.24372385 -0.45972803 22.375 5.1875 C22.91125 5.785625 23.4475 6.38375 24 7 C24.103125 6.401875 24.20625 5.80375 24.3125 5.1875 C25.1274206 2.59457082 25.86116296 1.66301646 28 0 C30.41015625 -0.328125 30.41015625 -0.328125 33.0625 -0.25 C33.94035156 -0.23453125 34.81820312 -0.2190625 35.72265625 -0.203125 C38 0 38 0 40 1 C40 1.99 40 2.98 40 4 C36.04 4 32.08 4 28 4 C29.30495046 8.94623651 29.30495046 8.94623651 31.83984375 9.8203125 C32.53207031 9.92085937 33.22429687 10.02140625 33.9375 10.125 C36.37757102 10.6130142 37.91493585 10.94844597 40.0625 12.25 C41.56814464 15.06053666 40.88312694 17.03521671 40 20 C35.7863742 22.80908387 31.95250658 22.69707949 27 22 C24.375 20 24.375 20 23 18 C22.19304687 18.65484375 21.38609375 19.3096875 20.5546875 19.984375 C16.52339371 22.6719042 12.82454235 22.45547428 8.125 22.25 C5.44375 22.1675 2.7625 22.085 0 22 C0 14.74 0 7.48 0 0 Z " fill="#CAC6D4" transform="translate(96,118)"/>
<path d="M0 0 C1.65 0 3.3 0 5 0 C6.9140625 2.625 6.9140625 2.625 8.625 6 C10.25083225 9.2998471 10.25083225 9.2998471 12 12 C12.99 12 13.98 12 15 12 C15.0825 11.13375 15.165 10.2675 15.25 9.375 C16.12997347 5.41511939 17.36254686 3.07702866 20 0 C21.65 0 23.3 0 25 0 C25 7.26 25 14.52 25 22 C23.02 22 21.04 22 19 22 C18.67 20.02 18.34 18.04 18 16 C17.67 16.66 17.34 17.32 17 18 C13.9375 18.625 13.9375 18.625 11 19 C10.67 18.01 10.34 17.02 10 16 C7.98491642 15.26676204 7.98491642 15.26676204 6 15 C6 17.31 6 19.62 6 22 C4.02 22 2.04 22 0 22 C0 14.74 0 7.48 0 0 Z " fill="#F3F2F5" transform="translate(31,118)"/>
<path d="M0 0 C1.98 0 3.96 0 6 0 C8.046875 2.15234375 8.046875 2.15234375 9.75 4.9375 C11.800698 8.58850986 11.800698 8.58850986 15 11 C15 7.37 15 3.74 15 0 C16.98 0 18.96 0 21 0 C21 7.26 21 14.52 21 22 C16 22 16 22 13.83203125 20.06640625 C13.16558594 19.24011719 12.49914062 18.41382813 11.8125 17.5625 C9.29812718 14.29455597 9.29812718 14.29455597 6 12 C6 15.3 6 18.6 6 22 C4.02 22 2.04 22 0 22 C0 14.74 0 7.48 0 0 Z " fill="#DCDAE3" transform="translate(71,118)"/>
<path d="M0 0 C12.32142857 -0.13392857 12.32142857 -0.13392857 16 1 C17.01924246 7.21369499 17.62926746 11.48351346 14 17 C14.66 17 15.32 17 16 17 C16.33 18.65 16.66 20.3 17 22 C16.01 22 15.02 22 14 22 C13.38125 20.7934375 13.38125 20.7934375 12.75 19.5625 C11.15014447 16.5915869 11.15014447 16.5915869 7.3125 16.1875 C5.6728125 16.0946875 5.6728125 16.0946875 4 16 C4 17.98 4 19.96 4 22 C2.68 22 1.36 22 0 22 C0 14.74 0 7.48 0 0 Z " fill="#A39EB3" transform="translate(189,118)"/>
<path d="M0 0 C0.87785156 0.01546875 1.75570312 0.0309375 2.66015625 0.046875 C4.9375 0.25 4.9375 0.25 6.9375 1.25 C6.9375 2.24 6.9375 3.23 6.9375 4.25 C2.9775 4.25 -0.9825 4.25 -5.0625 4.25 C-3.75754954 9.19623651 -3.75754954 9.19623651 -1.22265625 10.0703125 C-0.53042969 10.17085937 0.16179687 10.27140625 0.875 10.375 C3.31507102 10.8630142 4.85243585 11.19844597 7 12.5 C8.50564464 15.31053666 7.82062694 17.28521671 6.9375 20.25 C2.7238742 23.05908387 -1.10999342 22.94707949 -6.0625 22.25 C-8.6875 20.25 -8.6875 20.25 -10.0625 18.25 C-12.0425 19.24 -12.0425 19.24 -14.0625 20.25 C-13.7325 19.425 -13.4025 18.6 -13.0625 17.75 C-11.89467191 13.6626017 -11.9166115 10.48076656 -12.0625 6.25 C-11.0725 6.58 -10.0825 6.91 -9.0625 7.25 C-8.9078125 6.3528125 -8.9078125 6.3528125 -8.75 5.4375 C-7.25647746 0.68538283 -4.75258118 -0.13998766 0 0 Z " fill="#382B5C" transform="translate(129.0625,117.75)"/>
<path d="M0 0 C1.32 0 2.64 0 4 0 C4 2.97 4 5.94 4 9 C7.96 9 11.92 9 16 9 C16 6.36 16 3.72 16 1 C17.32 0.67 18.64 0.34 20 0 C20 7.26 20 14.52 20 22 C18.68 22 17.36 22 16 22 C16 19.03 16 16.06 16 13 C12.04 13 8.08 13 4 13 C4 15.97 4 18.94 4 22 C2.68 22 1.36 22 0 22 C0 14.74 0 7.48 0 0 Z " fill="#685E84" transform="translate(141,118)"/>
<path d="M0 0 C3 1 3 1 4.7890625 4.203125 C5.41183191 5.54713592 6.02339293 6.89638409 6.625 8.25 C6.93695313 8.91902344 7.24890625 9.58804688 7.5703125 10.27734375 C9.18884117 13.82833985 10.44125302 17.1038724 11 21 C10.01 21 9.02 21 8 21 C7.34 20.01 6.68 19.02 6 18 C3.11404054 17.41518879 3.11404054 17.41518879 -0.125 17.3125 C-1.22070312 17.24675781 -2.31640625 17.18101562 -3.4453125 17.11328125 C-4.28835937 17.07589844 -5.13140625 17.03851563 -6 17 C-6.33 18.65 -6.66 20.3 -7 22 C-7.99 22 -8.98 22 -10 22 C-8.17043686 14.60150346 -5.53381572 5.53381572 0 0 Z " fill="#B3AEC1" transform="translate(174,118)"/>
<path d="M0 0 C4.95 0 9.9 0 15 0 C15 0.66 15 1.32 15 2 C11.04 2 7.08 2 3 2 C3 4.64 3 7.28 3 10 C6.63 10 10.26 10 14 10 C14 10.66 14 11.32 14 12 C10.37 12 6.74 12 3 12 C3 14.64 3 17.28 3 20 C7.29 20 11.58 20 16 20 C16 20.66 16 21.32 16 22 C10.72 22 5.44 22 0 22 C0 14.74 0 7.48 0 0 Z " fill="#C2BECC" transform="translate(211,118)"/>
<path d="M0 0 C0.87785156 0.01546875 1.75570312 0.0309375 2.66015625 0.046875 C4.9375 0.25 4.9375 0.25 6.9375 1.25 C6.9375 2.24 6.9375 3.23 6.9375 4.25 C2.9775 4.25 -0.9825 4.25 -5.0625 4.25 C-3.75754954 9.19623651 -3.75754954 9.19623651 -1.22265625 10.0703125 C-0.53042969 10.17085937 0.16179687 10.27140625 0.875 10.375 C3.31507102 10.8630142 4.85243585 11.19844597 7 12.5 C8.50564464 15.31053666 7.82062694 17.28521671 6.9375 20.25 C3.62379 22.45914 2.5928979 22.47481553 -1.25 22.375 C-2.15105469 22.35695312 -3.05210938 22.33890625 -3.98046875 22.3203125 C-4.66753906 22.29710937 -5.35460937 22.27390625 -6.0625 22.25 C-6.7225 20.93 -7.3825 19.61 -8.0625 18.25 C-7.0725 18.58 -6.0825 18.91 -5.0625 19.25 C-3.66810336 19.31665376 -2.27080125 19.33538199 -0.875 19.3125 C0.383125 19.291875 1.64125 19.27125 2.9375 19.25 C3.5975 17.6 4.2575 15.95 4.9375 14.25 C4.25042969 14.04503906 3.56335938 13.84007812 2.85546875 13.62890625 C1.95441406 13.35949219 1.05335938 13.09007812 0.125 12.8125 C-0.76832031 12.54566406 -1.66164063 12.27882812 -2.58203125 12.00390625 C-4.41723055 11.44612127 -6.24283726 10.85655425 -8.0625 10.25 C-8.42896707 3.7757485 -8.42896707 3.7757485 -6.8671875 1.53515625 C-4.46597859 -0.17479555 -2.92137705 -0.0860494 0 0 Z " fill="#C6C2D1" transform="translate(129.0625,117.75)"/>
<path d="M0 0 C6.25 -0.48076923 6.25 -0.48076923 9.4375 1.5625 C11.58016848 4.90506283 11.49573337 7.10495209 11 11 C9.9375 12.9375 9.9375 12.9375 8 14 C4.375 14.25 4.375 14.25 1 14 C0 13 0 13 -0.09765625 10.05859375 C-0.08605469 8.86363281 -0.07445313 7.66867188 -0.0625 6.4375 C-0.05347656 5.23996094 -0.04445313 4.04242188 -0.03515625 2.80859375 C-0.02355469 1.88175781 -0.01195313 0.95492187 0 0 Z " fill="#3C2E60" transform="translate(101,122)"/>
<path d="M0 0 C8.625 -0.25 8.625 -0.25 12 2 C11.74438677 4.3431213 11.40729228 6.67843403 11 9 C7.57067929 10.71466036 3.78283935 10.05404056 0 10 C0 6.7 0 3.4 0 0 Z " fill="#332657" transform="translate(192,121)"/>
<path d="M0 0 C0.66 0 1.32 0 2 0 C2 6.93 2 13.86 2 21 C1.34 21 0.68 21 0 21 C0 18.03 0 15.06 0 12 C-4.62 12 -9.24 12 -14 12 C-14 14.97 -14 17.94 -14 21 C-14.66 21 -15.32 21 -16 21 C-16 14.4 -16 7.8 -16 1 C-15.34 1 -14.68 1 -14 1 C-14 3.97 -14 6.94 -14 10 C-9.38 10 -4.76 10 0 10 C0 6.7 0 3.4 0 0 Z " fill="#D7D5DE" transform="translate(158,118)"/>
<path d="M0 0 C1.65 0 3.3 0 5 0 C5 7.26 5 14.52 5 22 C3.35 22 1.7 22 0 22 C0 14.74 0 7.48 0 0 Z " fill="#E4E2E9" transform="translate(61,118)"/>
<path d="M0 0 C4.95 0 9.9 0 15 0 C15 1.65 15 3.3 15 5 C11.37 5 7.74 5 4 5 C4 6.32 4 7.64 4 9 C6.97 9 9.94 9 13 9 C13.33 10.65 13.66 12.3 14 14 C10.37 14 6.74 14 3 14 C3 15.98 3 17.96 3 20 C6.96 20 10.92 20 15 20 C15 20.33 15 20.66 15 21 C10.71 21 6.42 21 2 21 C2 18.36 2 15.72 2 13 C5.63 13 9.26 13 13 13 C13 12.34 13 11.68 13 11 C9.37 11 5.74 11 2 11 C2 8.36 2 5.72 2 3 C5.96 3 9.92 3 14 3 C14 2.34 14 1.68 14 1 C9.38 1 4.76 1 0 1 C0 0.67 0 0.34 0 0 Z " fill="#594F76" transform="translate(212,117)"/>
<path d="M0 0 C4.29 0 8.58 0 13 0 C13 0.66 13 1.32 13 2 C9.7 1.67 6.4 1.34 3 1 C3.33 5.62 3.66 10.24 4 15 C6.97 15.33 9.94 15.66 13 16 C13 16.99 13 17.98 13 19 C8.71 19 4.42 19 0 19 C0 12.73 0 6.46 0 0 Z " fill="#F3F2F5" transform="translate(98,120)"/>
<path d="M0 0 C0 7.26 0 14.52 0 22 C-1.98 22 -3.96 22 -6 22 C-6.33 20.02 -6.66 18.04 -7 16 C-7.33 16.66 -7.66 17.32 -8 18 C-8.66 18 -9.32 18 -10 18 C-8.125 12.25 -8.125 12.25 -7 10 C-6.01 10 -5.02 10 -4 10 C-4 13.63 -4 17.26 -4 21 C-3.01 21 -2.02 21 -1 21 C-1 14.4 -1 7.8 -1 1 C-5.16825429 2.95221552 -5.16825429 2.95221552 -6.75 6.625 C-7.36875 8.295625 -7.36875 8.295625 -8 10 C-8.66 10 -9.32 10 -10 10 C-7.04545455 0 -7.04545455 0 0 0 Z " fill="#9790AA" transform="translate(56,118)"/>
<path d="M0 0 C0.99 0 1.98 0 3 0 C3 6.6 3 13.2 3 20 C2.01 20 1.02 20 0 20 C0 16.37 0 12.74 0 9 C-1.32 9 -2.64 9 -4 9 C-2.25 2.25 -2.25 2.25 0 0 Z " fill="#F4F3F6" transform="translate(52,119)"/>
<path d="M0 0 C0.33 1.32 0.66 2.64 1 4 C3.97 4 6.94 4 10 4 C10 3.01 10 2.02 10 1 C11.875 1.5625 11.875 1.5625 14 3 C15.25 6.625 15.25 6.625 16 10 C15.01 10 14.02 10 13 10 C12.34 9.01 11.68 8.02 11 7 C8.11404054 6.41518879 8.11404054 6.41518879 4.875 6.3125 C3.77929688 6.24675781 2.68359375 6.18101562 1.5546875 6.11328125 C0.71164063 6.07589844 -0.13140625 6.03851563 -1 6 C-1.33 7.65 -1.66 9.3 -2 11 C-2.99 11 -3.98 11 -5 11 C-4.55123384 9.35153231 -4.09069512 7.70626545 -3.625 6.0625 C-3.36976563 5.14597656 -3.11453125 4.22945312 -2.8515625 3.28515625 C-2 1 -2 1 0 0 Z " fill="#C7C4D1" transform="translate(169,129)"/>
<path d="M0 0 C4.95 0 9.9 0 15 0 C15 0.66 15 1.32 15 2 C11.04 2 7.08 2 3 2 C3 4.64 3 7.28 3 10 C2.34 10 1.68 10 1 10 C1 13.96 1 17.92 1 22 C0.67 22 0.34 22 0 22 C0 14.74 0 7.48 0 0 Z " fill="#A099B0" transform="translate(211,118)"/>
<path d="M0 0 C1.65 0 3.3 0 5 0 C5 0.99 5 1.98 5 3 C3.68 2.34 2.36 1.68 1 1 C1 7.6 1 14.2 1 21 C1.99 21 2.98 21 4 21 C4 17.37 4 13.74 4 10 C8 12 8 12 8.75 14.125 C8.87375 15.053125 8.87375 15.053125 9 16 C8.01 15.67 7.02 15.34 6 15 C6 17.31 6 19.62 6 22 C4.02 22 2.04 22 0 22 C0 14.74 0 7.48 0 0 Z " fill="#ABA5BA" transform="translate(31,118)"/>
<path d="M0 0 C1.98 0 3.96 0 6 0 C5.67 0.66 5.34 1.32 5 2 C3.68 1.67 2.36 1.34 1 1 C1 7.6 1 14.2 1 21 C1.99 21 2.98 21 4 21 C4 17.37 4 13.74 4 10 C5.32 10.33 6.64 10.66 8 11 C7.01 11.495 7.01 11.495 6 12 C6 15.3 6 18.6 6 22 C4.02 22 2.04 22 0 22 C0 14.74 0 7.48 0 0 Z " fill="#9D96AF" transform="translate(71,118)"/>
<path d="M0 0 C0.66 0 1.32 0 2 0 C2.66 2.64 3.32 5.28 4 8 C4.66 6.02 5.32 4.04 6 2 C6.33 2 6.66 2 7 2 C6.67 5.3 6.34 8.6 6 12 C4.02 12.66 2.04 13.32 0 14 C0 13.34 0 12.68 0 12 C-0.66 11.67 -1.32 11.34 -2 11 C-1.34 10.34 -0.68 9.68 0 9 C0.24253813 6.78927023 0.24253813 6.78927023 0.125 4.375 C0.10695313 3.55773437 0.08890625 2.74046875 0.0703125 1.8984375 C0.04710938 1.27195312 0.02390625 0.64546875 0 0 Z " fill="#C5C1D0" transform="translate(111,124)"/>
<path d="M0 0 C0.87785156 0.01546875 1.75570312 0.0309375 2.66015625 0.046875 C4.9375 0.25 4.9375 0.25 6.9375 1.25 C6.9375 2.24 6.9375 3.23 6.9375 4.25 C2.9775 4.25 -0.9825 4.25 -5.0625 4.25 C-5.3925 6.23 -5.7225 8.21 -6.0625 10.25 C-6.7225 10.25 -7.3825 10.25 -8.0625 10.25 C-8.42896707 3.7757485 -8.42896707 3.7757485 -6.8671875 1.53515625 C-4.46597859 -0.17479555 -2.92137705 -0.0860494 0 0 Z " fill="#9D96AF" transform="translate(129.0625,117.75)"/>
<path d="M0 0 C1.2065625 0.0309375 1.2065625 0.0309375 2.4375 0.0625 C3.86694945 2.41688733 4.52411261 3.54282433 4.0625 6.3125 C3.85625 6.89 3.65 7.4675 3.4375 8.0625 C1.4575 8.0625 -0.5225 8.0625 -2.5625 8.0625 C-2.94313221 5.7364143 -3.27519945 3.40194736 -3.5625 1.0625 C-2.5625 0.0625 -2.5625 0.0625 0 0 Z " fill="#322854" transform="translate(97.5625,224.9375)"/>
<path d="M0 0 C0.99 0.66 1.98 1.32 3 2 C3.66 2 4.32 2 5 2 C5 1.34 5 0.68 5 0 C5.99 0 6.98 0 8 0 C6.94124926 3.40312738 5.99097846 6.01353231 4 9 C2.125 8.75 2.125 8.75 0 8 C-1.72101535 5.41847698 -2 4.15081975 -2 1 C-1.34 0.67 -0.68 0.34 0 0 Z " fill="#E9E7ED" transform="translate(41,128)"/>
<path d="M0 0 C0.66 0 1.32 0 2 0 C2.19588601 3.6454342 2.38030536 7.2913579 2.5625 10.9375 C2.61857422 11.97841797 2.67464844 13.01933594 2.73242188 14.09179688 C2.78076172 15.08115234 2.82910156 16.07050781 2.87890625 17.08984375 C2.9260376 18.00628662 2.97316895 18.92272949 3.02172852 19.86694336 C3 22 3 22 2 23 C-0.33297433 23.04092937 -2.66705225 23.04241723 -5 23 C-5 22.67 -5 22.34 -5 22 C-3.35 22 -1.7 22 0 22 C0 14.74 0 7.48 0 0 Z " fill="#4B3E6C" transform="translate(66,118)"/>
<path d="M0 0 C0.66 0 1.32 0 2 0 C5 6.625 5 6.625 5 10 C2.36 10 -0.28 10 -3 10 C-2.01 6.7 -1.02 3.4 0 0 Z " fill="#3C305F" transform="translate(174,122)"/>
<path d="M0 0 C0.66 1.32 1.32 2.64 2 4 C0.22555028 6.24606427 -0.58352485 6.95081002 -3.48046875 7.29296875 C-4.82044922 7.24076172 -4.82044922 7.24076172 -6.1875 7.1875 C-7.53908203 7.14689453 -7.53908203 7.14689453 -8.91796875 7.10546875 C-9.60503906 7.07066406 -10.29210937 7.03585938 -11 7 C-11.66 5.68 -12.32 4.36 -13 3 C-12.01 3.33 -11.02 3.66 -10 4 C-8.60560336 4.06665376 -7.20830125 4.08538199 -5.8125 4.0625 C-4.554375 4.041875 -3.29625 4.02125 -2 4 C-1.34 2.68 -0.68 1.36 0 0 Z " fill="#AAA4B9" transform="translate(134,133)"/>
<path d="M0 0 C0.33 1.32 0.66 2.64 1 4 C5.29 4 9.58 4 14 4 C14 4.99 14 5.98 14 7 C13.67 6.67 13.34 6.34 13 6 C10.98405418 5.76572222 8.961526 5.58663876 6.9375 5.4375 C5.28041016 5.31181641 5.28041016 5.31181641 3.58984375 5.18359375 C2.73519531 5.12300781 1.88054687 5.06242188 1 5 C0.67 6.65 0.34 8.3 0 10 C-0.99 10 -1.98 10 -3 10 C-2.01 6.7 -1.02 3.4 0 0 Z " fill="#9089A4" transform="translate(167,130)"/>
<path d="M0 0 C0.33 0.66 0.66 1.32 1 2 C1.66 2 2.32 2 3 2 C2.34 3.98 1.68 5.96 1 8 C3.64 8 6.28 8 9 8 C9 8.33 9 8.66 9 9 C6.03 9 3.06 9 0 9 C-1.125 6.75 -1.125 6.75 -2 4 C-1.125 1.6875 -1.125 1.6875 0 0 Z " fill="#8F88A4" transform="translate(170,124)"/>
<path d="M0 0 C2.0625 0.4375 2.0625 0.4375 4 1 C3.67 2.65 3.34 4.3 3 6 C1.68 6 0.36 6 -1 6 C-1.042721 4.33388095 -1.04063832 2.66617115 -1 1 C-0.67 0.67 -0.34 0.34 0 0 Z " fill="#302451" transform="translate(248,164)"/>
<path d="M0 0 C3 1 3 1 4 3 C4.46153846 8.42307692 4.46153846 8.42307692 2.5 10.875 C1.7575 11.431875 1.7575 11.431875 1 12 C0.34 11.34 -0.32 10.68 -1 10 C-0.34 10 0.32 10 1 10 C1.11320856 4.91696314 1.11320856 4.91696314 0 0 Z " fill="#C6C2D0" transform="translate(202,120)"/>
<path d="M0 0 C1.32 1.32 2.64 2.64 4 4 C3.67 4.66 3.34 5.32 3 6 C2.34 5.67 1.68 5.34 1 5 C1 7.31 1 9.62 1 12 C0.67 12 0.34 12 0 12 C0 8.04 0 4.08 0 0 Z " fill="#6C6287" transform="translate(36,128)"/>
<path d="M0 0 C0 0.99 0 1.98 0 3 C-3.63 3 -7.26 3 -11 3 C-10.67 2.34 -10.34 1.68 -10 1 C-6.6322481 0.06451336 -3.4815554 -0.09947301 0 0 Z " fill="#867D9C" transform="translate(136,119)"/>
</svg>
