<?xml version="1.0" encoding="UTF-8"?>
<svg version="1.1" xmlns="http://www.w3.org/2000/svg" width="605" height="283">
<path d="M0 0 C12 0 12 0 15.04296875 2.97265625 C15.80348693 4.31099457 16.51677926 5.67697806 17.1875 7.0625 C17.9907374 8.5248209 18.79412668 9.98705838 19.59765625 11.44921875 C20.18571045 12.577229 20.18571045 12.577229 20.78564453 13.72802734 C22.73569871 17.37643992 24.94597561 20.86043058 27.125 24.375 C31 30.67676768 31 30.67676768 31 33 C34.10372874 30.30315883 35.95642664 26.91972293 37.9765625 23.3984375 C38.34727875 22.76136871 38.717995 22.12429993 39.09994507 21.46792603 C40.27937714 19.43947445 41.45247075 17.40744816 42.625 15.375 C43.80574373 13.33605717 44.9877994 11.29789089 46.17147827 9.26065063 C46.90685131 7.99418489 47.64032405 6.72661351 48.37173462 5.45785522 C50.88933798 1.11066202 50.88933798 1.11066202 52 0 C55.96 0 59.92 0 64 0 C64 18.48 64 36.96 64 56 C59.71 56 55.42 56 51 56 C50.67 46.1 50.34 36.2 50 26 C48.63875 28.454375 47.2775 30.90875 45.875 33.4375 C44.63792705 35.630584 43.39146753 37.81788752 42.14111328 40.00341797 C41.17900189 41.68680415 40.2270054 43.37596545 39.27734375 45.06640625 C35.91150557 50.65818541 35.91150557 50.65818541 32 52.125 C27.09096068 50.28411025 25.53550916 46.41558057 23 42 C21.83324724 40.05890684 20.65793357 38.12314947 19.48217773 36.1875 C17.64018978 33.13375635 15.82263199 30.06533563 14 27 C13.67 36.57 13.34 46.14 13 56 C8.71 56 4.42 56 0 56 C0 37.52 0 19.04 0 0 Z " fill="#FFFFFF" transform="translate(45,104)"/>
<path d="M0 0 C12 0 12 0 15.19140625 2.3515625 C16.01970877 3.41419618 16.8094161 4.50779812 17.5625 5.625 C18.21702148 6.4900415 18.21702148 6.4900415 18.88476562 7.37255859 C19.80703354 8.59512273 20.71391959 9.82942544 21.60595703 11.07421875 C23.50772956 13.70139594 25.51924221 16.23466864 27.53491211 18.77490234 C28.93284728 20.54020025 30.31041108 22.31999404 31.6875 24.1015625 C34.00401758 27.11575718 34.00401758 27.11575718 37 30 C37.33 20.1 37.66 10.2 38 0 C42.62 0 47.24 0 52 0 C52 18.48 52 36.96 52 56 C40 56 40 56 35.8125 52.1875 C34.51681561 50.47687536 33.24705929 48.74638995 32 47 C30.53063206 45.20028855 29.05114097 43.40880255 27.5625 41.625 C26.04166667 39.75 24.52083333 37.875 23 36 C20.03 32.37 17.06 28.74 14 25 C13.67 35.23 13.34 45.46 13 56 C8.71 56 4.42 56 0 56 C0 37.52 0 19.04 0 0 Z " fill="#FFFFFF" transform="translate(148,104)"/>
<path d="M0 0 C5.56875 -0.0825 11.1375 -0.165 16.875 -0.25 C18.61120605 -0.28641602 20.34741211 -0.32283203 22.13623047 -0.36035156 C33.57527255 -0.50117831 42.72100836 0.77596149 51.3046875 9.046875 C57.18805134 15.82494394 57.85133655 23.41641699 57.44140625 32.1171875 C56.48189426 40.55749647 52.70996978 45.99139631 46.453125 51.52734375 C37.13547826 57.1208992 27.4476537 56.35197132 16.9375 56.1875 C11.348125 56.125625 5.75875 56.06375 0 56 C0 37.52 0 19.04 0 0 Z M14 11 C14 22.22 14 33.44 14 45 C27.54425414 46.04125009 27.54425414 46.04125009 38.7421875 40.46484375 C43.37374167 34.22023106 43.74881957 29.74117525 43 22 C41.38492402 18.44678747 41.38492402 18.44678747 39 16 C38.54625 15.4225 38.0925 14.845 37.625 14.25 C30.80746436 9.00574182 22.02036365 11 14 11 Z " fill="#FFFFFF" transform="translate(212,104)"/>
<path d="M0 0 C6.8990625 -0.12375 6.8990625 -0.12375 13.9375 -0.25 C16.08560181 -0.30462402 16.08560181 -0.30462402 18.27709961 -0.36035156 C26.24526248 -0.42926781 33.49193292 -0.15650487 39.60913086 5.48364258 C44.23431847 10.73396526 44.29162329 15.35776718 44.2109375 22.0546875 C43.89484641 26.46825564 42.75439585 29.32981516 39.53515625 32.39453125 C38.06251745 33.64393385 36.53316593 34.82566014 35 36 C34.34 36.66 33.68 37.32 33 38 C33.36351562 38.50974365 33.72703125 39.0194873 34.1015625 39.54467773 C35.73680361 41.84056674 37.36844427 44.13899074 39 46.4375 C39.57234375 47.23994141 40.1446875 48.04238281 40.734375 48.86914062 C41.27578125 49.63291016 41.8171875 50.39667969 42.375 51.18359375 C42.87773437 51.89056396 43.38046875 52.59753418 43.8984375 53.32592773 C45 55 45 55 45 56 C39.87228952 56.68694012 39.87228952 56.68694012 37 56 C34.85655853 53.67691917 33.65731935 50.87415012 32.25 48.0625 C29.9801741 44.10000205 28.00658968 40.70140612 23.55126953 39.14404297 C17.68618293 38.21295915 11.89567884 38.49185138 6 39 C6 44.61 6 50.22 6 56 C4.02 56 2.04 56 0 56 C0 37.52 0 19.04 0 0 Z M6 6 C6 14.91 6 23.82 6 33 C8.97 33.061875 11.94 33.12375 15 33.1875 C15.91910156 33.21481201 16.83820313 33.24212402 17.78515625 33.27026367 C24.52510813 33.33746088 30.08605582 32.33115534 35.5 28 C37.81873226 23.36253548 37.97774841 19.06980656 37 14 C34.75263835 9.97024808 32.39346027 7.46448676 28 6 C26.29983156 5.91821886 24.59663703 5.89250499 22.89453125 5.90234375 C22.00870361 5.90484131 21.12287598 5.90733887 20.21020508 5.90991211 C18.52834106 5.92356812 18.52834106 5.92356812 16.8125 5.9375 C13.244375 5.958125 9.67625 5.97875 6 6 Z " fill="#FFFFFF" transform="translate(453,104)"/>
<path d="M0 0 C2.31 0 4.62 0 7 0 C7 8.25 7 16.5 7 25 C18.22 25 29.44 25 41 25 C41 16.75 41 8.5 41 0 C43.31 0 45.62 0 48 0 C48 18.48 48 36.96 48 56 C45.69 56 43.38 56 41 56 C41 47.75 41 39.5 41 31 C29.78 31 18.56 31 7 31 C7 39.25 7 47.5 7 56 C4.69 56 2.38 56 0 56 C0 37.52 0 19.04 0 0 Z " fill="#FFFFFF" transform="translate(330,104)"/>
<path d="M0 0 C13.2 0 26.4 0 40 0 C40 1.65 40 3.3 40 5 C39 6 39 6 35.94897461 6.11352539 C34.60008729 6.11336634 33.25119386 6.10767612 31.90234375 6.09765625 C30.83905602 6.09553383 30.83905602 6.09553383 29.75428772 6.09336853 C27.48198288 6.08775443 25.20977525 6.07519963 22.9375 6.0625 C21.40039204 6.05748681 19.86328255 6.05292359 18.32617188 6.04882812 C14.55071333 6.0386297 10.77546596 6.01905732 7 6 C7 12.27 7 18.54 7 25 C16.57 25 26.14 25 36 25 C36 26.98 36 28.96 36 31 C26.43 31 16.86 31 7 31 C7 37.27 7 43.54 7 50 C18.22 50 29.44 50 41 50 C41 51.98 41 53.96 41 56 C27.47 56 13.94 56 0 56 C0 37.52 0 19.04 0 0 Z " fill="#FFFFFF" transform="translate(510,104)"/>
<path d="M0 0 C3.625 -0.1875 3.625 -0.1875 7 0 C21.47770017 30.76003551 21.47770017 30.76003551 27.9375 44.875 C28.35563965 45.7820166 28.7737793 46.6890332 29.20458984 47.62353516 C29.57922363 48.44644043 29.95385742 49.2693457 30.33984375 50.1171875 C30.66331787 50.82472168 30.98679199 51.53225586 31.32006836 52.26123047 C32 54 32 54 32 56 C29.69 56 27.38 56 25 56 C22.69 51.38 20.38 46.76 18 42 C8.1 42 -1.8 42 -12 42 C-13.98 46.62 -15.96 51.24 -18 56 C-20.64 56 -23.28 56 -26 56 C-21.00369588 44.61039883 -15.87724301 33.27991904 -10.71875 21.96304321 C-9.98965898 20.3628471 -9.26146846 18.7622404 -8.53417969 17.16122437 C-7.49676977 14.87840926 -6.45588408 12.59721073 -5.4140625 10.31640625 C-5.09974274 9.62332367 -4.78542297 8.93024109 -4.46157837 8.21615601 C-3.12919526 5.30830605 -1.77902428 2.66853642 0 0 Z M3 8 C-5.03576174 21.49770637 -5.03576174 21.49770637 -9 36 C-0.75 36 7.5 36 16 36 C13.8653125 31.0190625 13.8653125 31.0190625 11.6875 25.9375 C9.125 19.95833333 6.5625 13.97916667 4 8 C3.67 8 3.34 8 3 8 Z " fill="#FFFFFF" transform="translate(412,104)"/>
<path d="M0 0 C1.78125 1.60546875 1.78125 1.60546875 3 3 C2.34 4.65 1.68 6.3 1 8 C-0.01707031 7.566875 -0.01707031 7.566875 -1.0546875 7.125 C-8.84374044 4.01800935 -16.00309004 2.174216 -24.0625 5.375 C-27.07588901 6.67996519 -27.07588901 6.67996519 -28 9 C-28.49013078 13.49896648 -28.49013078 13.49896648 -26.95703125 17.57421875 C-24.06801362 19.67899207 -20.83505002 20.43182412 -17.4375 21.375 C-0.84611749 26.26615528 -0.84611749 26.26615528 4 32 C5.676194 37.02858199 5.60642735 41.34030411 3.8125 46.25 C0.82474153 50.78315078 -2.51443119 53.39383557 -7.859375 54.68359375 C-17.40416147 56.09441073 -27.06887498 55.45178751 -35.125 49.8125 C-35.74375 49.214375 -36.3625 48.61625 -37 48 C-36.67 46.35 -36.34 44.7 -36 43 C-32.83467782 43 -31.72336163 43.4881352 -29 44.9375 C-22.58319762 48.32819671 -15.8876953 49.31133289 -8.7578125 47.3984375 C-5.20579845 45.97558073 -5.20579845 45.97558073 -3 43 C-2.49190171 38.454013 -2.49190171 38.454013 -4.140625 34.3984375 C-6.62780932 32.52782409 -9.00630485 31.90087857 -12 31.0625 C-30.59093693 25.58481323 -30.59093693 25.58481323 -35 20 C-36.85858852 16.28282296 -36.43689228 12.05685692 -36 8 C-33.4754478 2.54696725 -30.23185691 0.52250244 -25 -2 C-16.90833441 -4.51407717 -7.64978869 -3.4680945 0 0 Z " fill="#FFFFFF" transform="translate(313,106)"/>
<path d="M0 0 C4.62 0 9.24 0 14 0 C14 18.48 14 36.96 14 56 C9.38 56 4.76 56 0 56 C0 37.52 0 19.04 0 0 Z " fill="#FFFFFF" transform="translate(121,104)"/>
</svg>
